<svg xmlns="http://www.w3.org/2000/svg" viewBox="0 0 38.08 38.59"><defs><style>.cls-1{fill:#ef4438;}.cls-2{fill:#fff;}</style></defs><title>Asset 2</title><g id="Layer_2" data-name="Layer 2"><g id="Layer_1-2" data-name="Layer 1"><polygon class="cls-1" points="9.23 2.69 11.8 3.5 12.84 0.98 15.19 2.31 16.72 0.07 18.74 1.86 20.7 0 22.31 2.18 24.61 0.77 25.74 3.25 28.27 2.35 28.87 5.02 31.53 4.68 31.57 7.41 34.25 7.64 33.73 10.32 36.3 11.11 35.24 13.62 37.59 14.94 36.05 17.17 38.08 18.96 36.11 20.81 37.73 22.99 35.42 24.39 36.56 26.86 34.02 27.74 34.63 30.4 31.97 30.73 32.02 33.46 29.35 33.22 28.84 35.9 26.28 35.09 25.23 37.6 22.89 36.28 21.36 38.52 19.34 36.72 17.38 38.59 15.77 36.4 13.47 37.81 12.34 35.34 9.8 36.23 9.21 33.57 6.54 33.91 6.5 31.18 3.83 30.95 4.35 28.27 1.78 27.47 2.83 24.96 0.48 23.65 2.03 21.41 0 19.63 1.97 17.77 0.35 15.6 2.65 14.19 1.51 11.72 4.05 10.84 3.44 8.18 6.11 7.86 6.05 5.13 8.73 5.37 9.23 2.69"/><path class="cls-2" d="M9.49,10a14.76,14.76,0,0,1,2.3.91,4.66,4.66,0,0,1,2,1.53A1.85,1.85,0,0,1,14,14.44a1.91,1.91,0,0,1-2,1s.47.76,1.07,1.65l-.48,1A2.21,2.21,0,0,1,11,19.32a5.27,5.27,0,0,1-3.31-.77l-.84-.41c-.53-.33-.53-1.49,0-2.58ZM8.15,17.18a4.06,4.06,0,0,0,.65.36c.78.38,1.61.41,2-.39s-.17-1.41-1-1.83c-.32-.16-1,.6-1.54,1.68Zm2.06-4.27c-.23.49-.3.94-.15,1a15.24,15.24,0,0,0,1.85.44l.27-.57c.28-.58,0-1.1-.79-1.48L11,12.14C10.81,12.08,10.45,12.42,10.21,12.91Z"/><path class="cls-2" d="M18.9,19.09c-.19.39-1,.4-1.73,0s-1.59-.28-1.83.22.26,1.25,1.12,1.67,1.4,1.08,1.22,1.47-1.22.28-2.3-.25l-.91-.45a2.2,2.2,0,0,1-1-2.93l1.78-3.69a2.17,2.17,0,0,1,2.91-1l.76.37c1.08.53,1.8,1.28,1.61,1.67s-1,.38-1.82,0-1.65-.37-1.86.07.25,1.1,1,1.48S19.08,18.7,18.9,19.09Z"/><path class="cls-2" d="M19.24,21.93a4.83,4.83,0,0,0,1.67,1.4c.79.39,1.36.26,1.61-.25s0-.92-.76-1.69c-1-1.07-1.53-2.18-1-3.3.63-1.3,2.19-1.75,4-.89a4.93,4.93,0,0,1,1.75,1.33c-.58.66-1.35.85-1.72.42L24,18.6c-.74-.36-1.27-.19-1.46.2s.08.91.88,1.78c1.1,1.15,1.38,2.16.85,3.25-.62,1.28-2.11,1.89-4.19.88l-.87-.43A1.82,1.82,0,0,1,19.24,21.93Z"/><path class="cls-2" d="M27.61,23c.52-1.08.49-2.18-.07-2.46s-.86-.82-.67-1.22,1.22-.29,2.29.23l1.9.93c1.07.52,1.79,1.27,1.6,1.67s-.81.49-1.38.22-1.45.38-2,1.46L28.23,26c-.52,1.08-1.33,1.77-1.79,1.54s-.43-1.3.09-2.37Z"/></g></g></svg>