<svg xmlns="http://www.w3.org/2000/svg" xmlns:xlink="http://www.w3.org/1999/xlink" viewBox="0 0 16 11"><defs><style>.cls-1{fill:url(#New_Gradient_Swatch_16);}.cls-2{fill:url(#New_Gradient_Swatch_16-2);}.cls-3{fill:url(#Silver_01);}.cls-4{fill:url(#Silver_01-2);}.cls-5{fill:#0a4166;}.cls-6{fill:#fff;}</style><linearGradient id="New_Gradient_Swatch_16" x1="6.95" y1="9.7" x2="11.57" y2="9.7" gradientUnits="userSpaceOnUse"><stop offset="0" stop-color="#00aeef"/><stop offset="0.97" stop-color="#2a64a1"/></linearGradient><linearGradient id="New_Gradient_Swatch_16-2" x1="2.76" y1="9.7" x2="7.4" y2="9.7" xlink:href="#New_Gradient_Swatch_16"/><linearGradient id="Silver_01" x1="9.87" y1="9.69" x2="10.98" y2="9.69" gradientUnits="userSpaceOnUse"><stop offset="0" stop-color="#cbd1d6"/><stop offset="0.2" stop-color="#bac0c5"/><stop offset="0.43" stop-color="#aab1b5"/><stop offset="0.52" stop-color="#b7bec2"/><stop offset="0.84" stop-color="#e3eaed"/><stop offset="1" stop-color="#f4fbfe"/></linearGradient><linearGradient id="Silver_01-2" x1="5.69" y1="9.7" x2="6.81" y2="9.7" xlink:href="#Silver_01"/></defs><title>Asset 1</title><g id="Layer_2" data-name="Layer 2"><g id="Layer_2-2" data-name="Layer 2"><path class="cls-1" d="M10.42,8.4A1.23,1.23,0,0,0,9.27,9.7a1.44,1.44,0,0,0,.1.52c.19.67-2.42.78-2.42.78h3.47a1.23,1.23,0,0,0,1.15-1.3A1.23,1.23,0,0,0,10.42,8.4Zm0,2.11a.82.82,0,1,1,.71-.81A.77.77,0,0,1,10.43,10.51Z"/><path class="cls-2" d="M6.24,8.39A1.24,1.24,0,0,0,5.09,9.7a1.45,1.45,0,0,0,.1.52c.19.67-2.43.78-2.43.78H6.24A1.24,1.24,0,0,0,7.4,9.7,1.24,1.24,0,0,0,6.24,8.39Zm0,2.12a.82.82,0,0,1,0-1.63.82.82,0,0,1,0,1.63Z"/><ellipse class="cls-3" cx="10.43" cy="9.69" rx="0.56" ry="0.63"/><ellipse class="cls-4" cx="6.25" cy="9.7" rx="0.56" ry="0.63"/><path class="cls-5" d="M15.67,0H4.25a.65.65,0,0,0-.51.22l-3.53,4a.89.89,0,0,0,0,1.15l3.53,4a.69.69,0,0,0,.51.25h.54A1.5,1.5,0,0,1,6.24,8.09,1.5,1.5,0,0,1,7.69,9.62H9a1.5,1.5,0,0,1,1.45-1.53,1.5,1.5,0,0,1,1.45,1.53h.59A.92.92,0,0,0,13.23,9L16,.55C16.1.12,15.86,0,15.67,0ZM1.8,5.49A.82.82,0,0,1,1,4.63a.82.82,0,0,1,.77-.87.82.82,0,0,1,.77.87A.82.82,0,0,1,1.8,5.49Z"/><path class="cls-6" d="M8.42,6.75l.06-.06a2.4,2.4,0,0,0,.7-2.44A1.16,1.16,0,0,0,9.06,4a.24.24,0,0,1,0-.32.6.6,0,0,0,.12-.18c.07-.21.2-.24.38-.23h3a.4.4,0,0,0,.31-.48c0-.19-.12-.28-.36-.28H4l.07-.12L5,1.06a.23.23,0,0,1,.2-.12h7.54a2,2,0,0,1,.72.15,1,1,0,0,1,.64.89A2.12,2.12,0,0,1,14,3.1a1.22,1.22,0,0,1-.57.66,1.41,1.41,0,0,1,.46,1.51,1.53,1.53,0,0,1-1.4,1.45,3.52,3.52,0,0,1-.43,0H8.42Zm1.42-1.5c.83,0,1.64,0,2.44,0,.23,0,.36-.22.34-.49s-.12-.29-.38-.29H9.94Z"/><path class="cls-6" d="M8.48,3.75a1.48,1.48,0,0,1,.44,1.62A1.52,1.52,0,0,1,7.54,6.71a3.7,3.7,0,0,1-.47,0H3.47l.44-3.52H7.47c.29,0,.37-.07.46-.37A.11.11,0,0,1,8,2.78H9.14A1.35,1.35,0,0,1,8.48,3.75ZM4.93,5.24H7.29a.54.54,0,0,0,.22-.05.45.45,0,0,0,.2-.48.27.27,0,0,0-.29-.25H5.12a.14.14,0,0,0-.1.09C5,4.78,5,5,4.93,5.24Z"/></g></g></svg>