<svg xmlns="http://www.w3.org/2000/svg" xmlns:xlink="http://www.w3.org/1999/xlink" viewBox="0 0 50.95 80.5"><defs><style>.cls-1{fill:url(#linear-gradient);}.cls-2{fill:url(#linear-gradient-2);}.cls-3{fill:url(#linear-gradient-3);}.cls-4{fill:url(#linear-gradient-4);}.cls-5{fill:url(#linear-gradient-5);}.cls-6{fill:#42a5f5;}.cls-7{fill:#fff;}.cls-8{fill:#fcfcfc;}</style><linearGradient id="linear-gradient" x1="5.81" y1="61.04" x2="30.32" y2="61.04" gradientUnits="userSpaceOnUse"><stop offset="0" stop-color="#001f8b"/><stop offset="1" stop-color="#08abff"/></linearGradient><linearGradient id="linear-gradient-2" x1="22.66" y1="43.96" x2="13.54" y2="77.87" xlink:href="#linear-gradient"/><linearGradient id="linear-gradient-3" x1="19.07" y1="58.88" x2="44.4" y2="58.88" xlink:href="#linear-gradient"/><linearGradient id="linear-gradient-4" x1="677.28" y1="-57.47" x2="677.76" y2="-26.04" gradientTransform="matrix(-0.96, 0.3, 0.3, 0.96, 692.01, -99.17)" xlink:href="#linear-gradient"/><linearGradient id="linear-gradient-5" y1="25.98" x2="50.95" y2="25.98" gradientUnits="userSpaceOnUse"><stop offset="0" stop-color="#ffae00"/><stop offset="1" stop-color="#b36000"/></linearGradient></defs><title>Asset 5</title><g id="Layer_2" data-name="Layer 2"><g id="Layer_2-2" data-name="Layer 2"><path class="cls-1" d="M14.8,72.73l-9,3.64,9.71-34.79,14.79,4.13L20.6,80.5l-5.8-7.77Zm5.6,6.7L29.72,46,15.86,42.17,6.54,75.56l8.25-3.34.17-.07,5.44,7.28Z"/><polygon class="cls-2" points="14.88 72.44 20.5 79.96 30.02 45.87 15.7 41.87 6.17 75.96 14.88 72.44"/><path class="cls-3" d="M35.32,70.48,29.73,78.4,19.07,43.89l14.67-4.53L44.4,73.87l-9.08-3.39ZM29.9,77.32l5.24-7.43.17.07,8.34,3.11L33.42,40,19.67,44.2,29.9,77.32Z"/><polygon class="cls-4" points="35.23 70.19 29.82 77.86 19.37 44.04 33.58 39.66 44.03 73.47 35.23 70.19"/><path class="cls-5" d="M34.38,4.92c6,1.92,9.31,1.84,12.47,6.12s1.68,9,1.68,14.75c0,3.22,3.27,7.07,2.2,9.92-1.55,4.12-5.36,5.57-8.64,8.4-2.66,2.29-5,6.61-8.48,7.68-2.44.76-5.54-1.12-8.24-1.12-3.06,0-7.11,1.85-9.84.88-3.76-1.34-5.18-6.07-7.92-8.87-1.93-2-5.89-2.62-7.12-5.12C-1.17,34.09,1.8,28.93,1.8,24.83,1.8,18.68.47,14.41,4,10c2.11-2.63,6.35-3.47,9.71-4.8C18,3.48,20,0,24.55,0,27.39,0,30.09,3.54,34.38,4.92Z"/><path class="cls-6" d="M34.21,5.33c5.88,1.88,9.12,1.81,12.23,6s1.65,8.79,1.65,14.47c0,3.16,3.2,6.94,2.16,9.72-1.52,4-5.25,5.47-8.47,8.23-2.61,2.25-4.94,6.48-8.31,7.53-2.4.75-5.44-1.1-8.08-1.1-3,0-7,1.82-9.64.86-3.69-1.31-5.08-6-7.76-8.7-1.89-1.93-5.78-2.56-7-5-1.66-3.38,1.26-8.45,1.26-12.47,0-6-1.3-10.22,2.19-14.59,2.07-2.58,6.23-3.4,9.53-4.7C18.15,3.92,20.08.51,24.57.51,27.35.51,30,4,34.21,5.33Z"/><circle class="cls-6" cx="25.44" cy="26.64" r="21.84"/><path class="cls-7" d="M6.18,26.64A19.27,19.27,0,0,1,25.44,7.38h0A19.27,19.27,0,0,1,44.71,26.64h0A19.27,19.27,0,0,1,25.44,45.91h0A19.26,19.26,0,0,1,6.18,26.64Zm5.4-13.87A19.55,19.55,0,0,0,5.83,26.64h0a19.56,19.56,0,0,0,5.74,13.87h0a19.55,19.55,0,0,0,13.87,5.74h0a19.54,19.54,0,0,0,13.87-5.74h0a19.54,19.54,0,0,0,5.75-13.87h0a19.54,19.54,0,0,0-5.75-13.87h0A19.53,19.53,0,0,0,25.44,7h0a19.55,19.55,0,0,0-13.87,5.75Z"/><path class="cls-8" d="M14,25.13s2-2.41,4.22-2c0,0,4.47,6.39,4.71,8.78,0,0,5.32-15,12.36-19A11.24,11.24,0,0,1,38,20S22.09,31.55,22.78,42.35C22.78,42.35,19.71,28,14,25.13Z"/></g></g></svg>