<svg xmlns="http://www.w3.org/2000/svg" viewBox="0 0 10.62 5.8"><defs><style>.cls-1{fill:#fff;}</style></defs><title>testAsset 2</title><g id="Layer_2" data-name="Layer 2"><g id="Layer_2-2" data-name="Layer 2"><path class="cls-1" d="M4.94,5.8,5,5.74a2.4,2.4,0,0,0,.7-2.44A1.16,1.16,0,0,0,5.59,3a.24.24,0,0,1,0-.32.6.6,0,0,0,.12-.18c.07-.21.2-.24.38-.23h3a.4.4,0,0,0,.31-.48c0-.19-.12-.28-.36-.28H.56l.07-.12L1.5.12A.23.23,0,0,1,1.71,0H9.24A2,2,0,0,1,10,.16,1,1,0,0,1,10.6,1a2.12,2.12,0,0,1-.12,1.1,1.22,1.22,0,0,1-.57.66,1.41,1.41,0,0,1,.46,1.51A1.53,1.53,0,0,1,9,5.77a3.52,3.52,0,0,1-.43,0H4.94ZM6.37,4.3c.83,0,1.64,0,2.44,0,.23,0,.36-.22.34-.49S9,3.51,8.77,3.51H6.46Z"/><path class="cls-1" d="M5,2.81a1.48,1.48,0,0,1,.44,1.62A1.52,1.52,0,0,1,4.07,5.77a3.7,3.7,0,0,1-.47,0H0L.44,2.28H4c.29,0,.37-.07.46-.37a.11.11,0,0,1,.08-.07H5.67A1.35,1.35,0,0,1,5,2.81ZM1.46,4.3H3.81A.54.54,0,0,0,4,4.25a.45.45,0,0,0,.2-.48.27.27,0,0,0-.29-.25H1.64a.14.14,0,0,0-.1.09C1.51,3.84,1.49,4.06,1.46,4.3Z"/></g></g></svg>